<mxfile host="app.diagrams.net" modified="2024-05-28T10:44:39.404Z" agent="Mozilla/5.0 (Macintosh; Intel Mac OS X 10_15_7) AppleWebKit/605.1.15 (KHTML, like Gecko) Version/17.4.1 Safari/605.1.15" etag="mOB4i1MjjpjC3RVqCI6Q" version="24.4.9" type="github">
  <diagram name="Page-1" id="mpJqVnguFT9XH7bJjBD0">
    <mxGraphModel dx="1434" dy="1889" grid="1" gridSize="10" guides="1" tooltips="1" connect="1" arrows="1" fold="1" page="1" pageScale="1" pageWidth="827" pageHeight="1169" math="0" shadow="0">
      <root>
        <mxCell id="0" />
        <mxCell id="1" parent="0" />
        <mxCell id="EupL2Pq4H2573-lRcajf-40" value="" style="rounded=1;whiteSpace=wrap;html=1;sketch=1;hachureGap=4;jiggle=2;curveFitting=1;fontFamily=Architects Daughter;fontSource=https%3A%2F%2Ffonts.googleapis.com%2Fcss%3Ffamily%3DArchitects%2BDaughter;fillColor=#e1d5e7;strokeColor=#9673a6;" vertex="1" parent="1">
          <mxGeometry x="251" y="-230" width="326" height="120" as="geometry" />
        </mxCell>
        <mxCell id="EupL2Pq4H2573-lRcajf-10" style="edgeStyle=orthogonalEdgeStyle;rounded=0;sketch=1;hachureGap=4;jiggle=2;curveFitting=1;orthogonalLoop=1;jettySize=auto;html=1;fontFamily=Architects Daughter;fontSource=https%3A%2F%2Ffonts.googleapis.com%2Fcss%3Ffamily%3DArchitects%2BDaughter;" edge="1" parent="1" source="EupL2Pq4H2573-lRcajf-1" target="EupL2Pq4H2573-lRcajf-3">
          <mxGeometry relative="1" as="geometry">
            <Array as="points">
              <mxPoint x="294" y="180" />
              <mxPoint x="294" y="180" />
            </Array>
          </mxGeometry>
        </mxCell>
        <mxCell id="EupL2Pq4H2573-lRcajf-1" value="" style="rounded=1;whiteSpace=wrap;html=1;sketch=1;hachureGap=4;jiggle=2;curveFitting=1;fontFamily=Architects Daughter;fontSource=https%3A%2F%2Ffonts.googleapis.com%2Fcss%3Ffamily%3DArchitects%2BDaughter;fillColor=#dae8fc;strokeColor=#6c8ebf;" vertex="1" parent="1">
          <mxGeometry x="214" y="230" width="400" height="140" as="geometry" />
        </mxCell>
        <mxCell id="EupL2Pq4H2573-lRcajf-14" style="edgeStyle=orthogonalEdgeStyle;rounded=0;sketch=1;hachureGap=4;jiggle=2;curveFitting=1;orthogonalLoop=1;jettySize=auto;html=1;fontFamily=Architects Daughter;fontSource=https%3A%2F%2Ffonts.googleapis.com%2Fcss%3Ffamily%3DArchitects%2BDaughter;" edge="1" parent="1" source="EupL2Pq4H2573-lRcajf-3" target="EupL2Pq4H2573-lRcajf-40">
          <mxGeometry relative="1" as="geometry">
            <mxPoint x="250" y="-180" as="targetPoint" />
            <Array as="points">
              <mxPoint x="224" y="-180" />
            </Array>
          </mxGeometry>
        </mxCell>
        <mxCell id="EupL2Pq4H2573-lRcajf-25" style="edgeStyle=orthogonalEdgeStyle;rounded=0;sketch=1;hachureGap=4;jiggle=2;curveFitting=1;orthogonalLoop=1;jettySize=auto;html=1;fontFamily=Architects Daughter;fontSource=https%3A%2F%2Ffonts.googleapis.com%2Fcss%3Ffamily%3DArchitects%2BDaughter;dashed=1;dashPattern=8 8;" edge="1" parent="1" source="EupL2Pq4H2573-lRcajf-3" target="EupL2Pq4H2573-lRcajf-1">
          <mxGeometry relative="1" as="geometry">
            <Array as="points">
              <mxPoint x="524" y="190" />
              <mxPoint x="524" y="190" />
            </Array>
          </mxGeometry>
        </mxCell>
        <mxCell id="EupL2Pq4H2573-lRcajf-3" value="" style="rounded=1;whiteSpace=wrap;html=1;sketch=1;hachureGap=4;jiggle=2;curveFitting=1;fontFamily=Architects Daughter;fontSource=https%3A%2F%2Ffonts.googleapis.com%2Fcss%3Ffamily%3DArchitects%2BDaughter;fillColor=#f8cecc;strokeColor=#b85450;" vertex="1" parent="1">
          <mxGeometry x="204" y="-20" width="420" height="160" as="geometry" />
        </mxCell>
        <mxCell id="EupL2Pq4H2573-lRcajf-4" value="Simple Connect App" style="text;html=1;align=center;verticalAlign=middle;whiteSpace=wrap;rounded=0;fontFamily=Architects Daughter;fontSource=https%3A%2F%2Ffonts.googleapis.com%2Fcss%3Ffamily%3DArchitects%2BDaughter;fontSize=20;" vertex="1" parent="1">
          <mxGeometry x="314" y="320" width="220" height="30" as="geometry" />
        </mxCell>
        <mxCell id="EupL2Pq4H2573-lRcajf-24" style="edgeStyle=orthogonalEdgeStyle;rounded=0;sketch=1;hachureGap=4;jiggle=2;curveFitting=1;orthogonalLoop=1;jettySize=auto;html=1;fontFamily=Architects Daughter;fontSource=https%3A%2F%2Ffonts.googleapis.com%2Fcss%3Ffamily%3DArchitects%2BDaughter;exitX=0.997;exitY=0.45;exitDx=0;exitDy=0;dashed=1;dashPattern=8 8;exitPerimeter=0;" edge="1" parent="1" source="EupL2Pq4H2573-lRcajf-40" target="EupL2Pq4H2573-lRcajf-3">
          <mxGeometry relative="1" as="geometry">
            <mxPoint x="564" y="-180" as="sourcePoint" />
            <Array as="points">
              <mxPoint x="576" y="-170" />
              <mxPoint x="594" y="-170" />
            </Array>
          </mxGeometry>
        </mxCell>
        <mxCell id="EupL2Pq4H2573-lRcajf-33" style="edgeStyle=orthogonalEdgeStyle;rounded=0;sketch=1;hachureGap=4;jiggle=2;curveFitting=1;orthogonalLoop=1;jettySize=auto;html=1;fontFamily=Architects Daughter;fontSource=https%3A%2F%2Ffonts.googleapis.com%2Fcss%3Ffamily%3DArchitects%2BDaughter;" edge="1" parent="1" source="EupL2Pq4H2573-lRcajf-11" target="EupL2Pq4H2573-lRcajf-19">
          <mxGeometry relative="1" as="geometry" />
        </mxCell>
        <mxCell id="EupL2Pq4H2573-lRcajf-35" style="edgeStyle=orthogonalEdgeStyle;rounded=0;sketch=1;hachureGap=4;jiggle=2;curveFitting=1;orthogonalLoop=1;jettySize=auto;html=1;entryX=0;entryY=0.25;entryDx=0;entryDy=0;fontFamily=Architects Daughter;fontSource=https%3A%2F%2Ffonts.googleapis.com%2Fcss%3Ffamily%3DArchitects%2BDaughter;" edge="1" parent="1" source="EupL2Pq4H2573-lRcajf-11" target="EupL2Pq4H2573-lRcajf-21">
          <mxGeometry relative="1" as="geometry" />
        </mxCell>
        <mxCell id="EupL2Pq4H2573-lRcajf-11" value="WCSession" style="text;html=1;align=center;verticalAlign=middle;whiteSpace=wrap;rounded=0;fontFamily=Architects Daughter;fontSource=https%3A%2F%2Ffonts.googleapis.com%2Fcss%3Ffamily%3DArchitects%2BDaughter;fillColor=#f8cecc;strokeColor=#b85450;" vertex="1" parent="1">
          <mxGeometry x="244" y="50" width="130" height="25" as="geometry" />
        </mxCell>
        <mxCell id="EupL2Pq4H2573-lRcajf-17" value="sendMessage" style="text;html=1;align=center;verticalAlign=middle;whiteSpace=wrap;rounded=0;fontFamily=Architects Daughter;fontSource=https%3A%2F%2Ffonts.googleapis.com%2Fcss%3Ffamily%3DArchitects%2BDaughter;fillColor=#dae8fc;strokeColor=#6c8ebf;" vertex="1" parent="1">
          <mxGeometry x="224" y="90" width="160" height="30" as="geometry" />
        </mxCell>
        <mxCell id="EupL2Pq4H2573-lRcajf-38" style="edgeStyle=orthogonalEdgeStyle;rounded=0;sketch=1;hachureGap=4;jiggle=2;curveFitting=1;orthogonalLoop=1;jettySize=auto;html=1;entryX=1;entryY=1;entryDx=0;entryDy=0;fontFamily=Architects Daughter;fontSource=https%3A%2F%2Ffonts.googleapis.com%2Fcss%3Ffamily%3DArchitects%2BDaughter;" edge="1" parent="1" source="EupL2Pq4H2573-lRcajf-18" target="EupL2Pq4H2573-lRcajf-11">
          <mxGeometry relative="1" as="geometry">
            <Array as="points">
              <mxPoint x="410" y="75" />
            </Array>
          </mxGeometry>
        </mxCell>
        <mxCell id="EupL2Pq4H2573-lRcajf-18" value="&lt;span style=&quot;caret-color: rgb(36, 36, 36); font-size: 12px; letter-spacing: -0.06px; text-align: left;&quot;&gt;.updateApplicationContext&lt;/span&gt;" style="text;html=1;align=center;verticalAlign=middle;whiteSpace=wrap;rounded=0;fontFamily=Architects Daughter;fillColor=#dae8fc;strokeColor=#6c8ebf;fontSize=12;fontColor=default;labelBackgroundColor=none;" vertex="1" parent="1">
          <mxGeometry x="394" y="90" width="220" height="30" as="geometry" />
        </mxCell>
        <mxCell id="EupL2Pq4H2573-lRcajf-19" value="didReceiveMessage" style="text;html=1;align=center;verticalAlign=middle;whiteSpace=wrap;rounded=0;fontFamily=Architects Daughter;fontSource=https%3A%2F%2Ffonts.googleapis.com%2Fcss%3Ffamily%3DArchitects%2BDaughter;fillColor=#dae8fc;strokeColor=#6c8ebf;" vertex="1" parent="1">
          <mxGeometry x="224" width="160" height="30" as="geometry" />
        </mxCell>
        <mxCell id="EupL2Pq4H2573-lRcajf-21" value="didReceiveApplicationContext" style="text;html=1;align=center;verticalAlign=middle;whiteSpace=wrap;rounded=0;fontFamily=Architects Daughter;fontSource=https%3A%2F%2Ffonts.googleapis.com%2Fcss%3Ffamily%3DArchitects%2BDaughter;fillColor=#dae8fc;strokeColor=#6c8ebf;" vertex="1" parent="1">
          <mxGeometry x="414" width="180" height="30" as="geometry" />
        </mxCell>
        <mxCell id="EupL2Pq4H2573-lRcajf-23" value="ViewModel" style="text;html=1;align=center;verticalAlign=top;whiteSpace=wrap;rounded=0;fontFamily=Architects Daughter;fontSource=https%3A%2F%2Ffonts.googleapis.com%2Fcss%3Ffamily%3DArchitects%2BDaughter;fillColor=#d5e8d4;strokeColor=#82b366;fontSize=17;" vertex="1" parent="1">
          <mxGeometry x="334" y="250" width="160" height="60" as="geometry" />
        </mxCell>
        <mxCell id="EupL2Pq4H2573-lRcajf-26" value="WatchConnector&amp;nbsp;" style="text;html=1;align=center;verticalAlign=middle;whiteSpace=wrap;rounded=0;fontFamily=Architects Daughter;fontSource=https%3A%2F%2Ffonts.googleapis.com%2Fcss%3Ffamily%3DArchitects%2BDaughter;" vertex="1" parent="1">
          <mxGeometry x="354" y="275" width="120" height="30" as="geometry" />
        </mxCell>
        <mxCell id="EupL2Pq4H2573-lRcajf-28" value="Watch App" style="text;html=1;align=center;verticalAlign=middle;whiteSpace=wrap;rounded=0;fontFamily=Architects Daughter;fontSource=https%3A%2F%2Ffonts.googleapis.com%2Fcss%3Ffamily%3DArchitects%2BDaughter;fontSize=20;" vertex="1" parent="1">
          <mxGeometry x="334" y="-220" width="136" height="30" as="geometry" />
        </mxCell>
        <mxCell id="EupL2Pq4H2573-lRcajf-29" value="ViewModel" style="text;html=1;align=center;verticalAlign=top;whiteSpace=wrap;rounded=0;fontFamily=Architects Daughter;fontSource=https%3A%2F%2Ffonts.googleapis.com%2Fcss%3Ffamily%3DArchitects%2BDaughter;fillColor=#d5e8d4;strokeColor=#82b366;fontSize=13;" vertex="1" parent="1">
          <mxGeometry x="344.25" y="-180" width="119.5" height="40" as="geometry" />
        </mxCell>
        <mxCell id="EupL2Pq4H2573-lRcajf-31" value="IPhoneConnector" style="text;html=1;align=center;verticalAlign=middle;whiteSpace=wrap;rounded=0;fontFamily=Architects Daughter;fontSource=https%3A%2F%2Ffonts.googleapis.com%2Fcss%3Ffamily%3DArchitects%2BDaughter;" vertex="1" parent="1">
          <mxGeometry x="349" y="-160" width="120" height="20" as="geometry" />
        </mxCell>
        <mxCell id="EupL2Pq4H2573-lRcajf-32" value="FileManager" style="text;html=1;align=center;verticalAlign=middle;whiteSpace=wrap;rounded=0;fontFamily=Architects Daughter;fontSource=https%3A%2F%2Ffonts.googleapis.com%2Fcss%3Ffamily%3DArchitects%2BDaughter;fillColor=#e1d5e7;strokeColor=#9673a6;" vertex="1" parent="1">
          <mxGeometry x="434" y="45" width="130" height="30" as="geometry" />
        </mxCell>
        <mxCell id="EupL2Pq4H2573-lRcajf-37" style="edgeStyle=orthogonalEdgeStyle;rounded=0;sketch=1;hachureGap=4;jiggle=2;curveFitting=1;orthogonalLoop=1;jettySize=auto;html=1;exitX=0.5;exitY=0;exitDx=0;exitDy=0;entryX=0.446;entryY=1.16;entryDx=0;entryDy=0;entryPerimeter=0;fontFamily=Architects Daughter;fontSource=https%3A%2F%2Ffonts.googleapis.com%2Fcss%3Ffamily%3DArchitects%2BDaughter;" edge="1" parent="1" source="EupL2Pq4H2573-lRcajf-17" target="EupL2Pq4H2573-lRcajf-11">
          <mxGeometry relative="1" as="geometry" />
        </mxCell>
        <mxCell id="EupL2Pq4H2573-lRcajf-41" value="View" style="text;html=1;align=center;verticalAlign=middle;whiteSpace=wrap;rounded=0;fontFamily=Architects Daughter;fontSource=https%3A%2F%2Ffonts.googleapis.com%2Fcss%3Ffamily%3DArchitects%2BDaughter;fillColor=#dae8fc;strokeColor=#6c8ebf;" vertex="1" parent="1">
          <mxGeometry x="270" y="-200" width="60" height="30" as="geometry" />
        </mxCell>
      </root>
    </mxGraphModel>
  </diagram>
</mxfile>
